 http://img802.imageshack.us/img802/3922/e607d546f0b3172405775f5.jpg

Country.......: USA
Genre.........: Sci-Fi, Action
Date release..: 31.10.2008 [World]
Director......: Amir Valinia
Writers.......: Jodie Jones, Sam Sullivan III
Duration......: 83 min.
More..........: http://www.imdb.com/title/tt1131742
Trailer.......: http://www.imdb.com/video/screenplay/vi1298662681
Trailer.......:

Pilot :
The greedy Braylon owns the Just Rite Sugar Company and has hired the unethical scientist Sergei to conduct an experiment to make an addictive sugar stronger than heroin or nicotine to increase his sales. Sergei uses invisible people as test subjects, like beggars, addicted junkies and illegals, in the clandestine Shadow Rock Mill. When Braylon's men mistakenly kidnap Ryan, who is the brother of his secretary Erin and son of his security chief Griff, and Hannah, the youngster becomes an important non-contaminated subject. However, Erin receives some mysterious e-mails from the unknown Cinderella with a picture of Ryan and a hint that he might be in Shadow Rock and together with her father, they decide to seek out Ryan.

Cats :
Michael Ironside   	 ...  	Colonal Gauge
Louis Herthum 	... 	Griff
Tony Senzamici 	... 	Commander Sykes
Steven Bauer 	... 	Santiago
Randy Austin 	... 	Bubba
Austin B. Church 	... 	Chandler
Aron Biedenharn Coates 	... 	Flower
Derrick Denicola 	... 	Ryan
Ron Finberg 	... 	Lieutenant Ron
Ronda Flannery 	... 	Test Subject 77
Joe Fontana 	... 	Mr. Sliva
Brooke Frost 	... 	Test Subject
Marc Gill 	... 	Col. Briggs
Jessica Heap 	... 	Hannah
Jodie Jones 	... 	Tip 

Data Technical :
!!! SAMPLE !!!
Audio.....: English
Subtitles.: None
Format                           : AVI
Format/Info                      : Audio Video Interleave
File size                        : 707 MiB
Duration                         : 1h 23mn
Overall bit rate                 : 1 184 Kbps
Video
ID                               : 0
Format                           : MPEG-4 Visual
Format profile                   : Simple@L3
Format settings, BVOP            : No
Format settings, QPel            : No
Format settings, GMC             : No warppoints
Format settings, Matrix          : Default (H.263)
Codec ID                         : XVID
Codec ID/Hint                    : XviD
Duration                         : 1h 23mn
Bit rate                         : 1 043 Kbps
Width                            : 700 pixels
Height                           : 360 pixels
Display aspect ratio             : 1.944
Frame rate                       : 29.970 fps
Color space                      : YUV
Chroma subsampling               : 4:2:0
Bit depth                        : 8 bits
Scan type                        : Progressive
Bits/(Pixel*Frame)               : 0.138
Stream size                      : 622 MiB (88%)
Writing library                  : XviD 1.1.2 (UTC 2006-11-01)
Audio
ID                               : 1
Format                           : MPEG Audio
Format version                   : Version 1
Format profile                   : Layer 3
Mode                             : Joint stereo
Mode extension                   : MS Stereo
Codec ID                         : 55
Codec ID/Hint                    : MP3
Duration                         : 1h 23mn
Bit rate mode                    : Constant
Bit rate                         : 128 Kbps
Channel(s)                       : 2 channels
Sampling rate                    : 48.0 KHz
Stream size                      : 76.2 MiB (11%)
Alignment                        : Split accross interleaves
Interleave, duration             : 24 ms (0.72 video frame)
Interleave, preload duration     : 286 ms
Writing library                  : LAME3.98

Screen : 
http://img814.imageshack.us/img814/7789/mutants2008s1.jpg 
http://img863.imageshack.us/img863/5911/mutants2008s2.jpg 
http://img708.imageshack.us/img708/6131/mutants2008s3.jpg 
http://img405.imageshack.us/img405/2903/mutants2008s4.jpg 
http://img845.imageshack.us/img845/632/mutants2008s5.jpg